<?xml version="1.0" standalone="no"?>
<!DOCTYPE svg PUBLIC "-//W3C//DTD SVG 20010904//EN"
 "http://www.w3.org/TR/2001/REC-SVG-20010904/DTD/svg10.dtd">
<svg version="1.0" xmlns="http://www.w3.org/2000/svg"
 width="786.000000pt" height="786.000000pt" viewBox="0 0 786.000000 786.000000"
 preserveAspectRatio="xMidYMid meet">
<metadata>
Created by potrace 1.14, written by Peter Selinger 2001-2017
</metadata>
<g transform="translate(0.000000,786.000000) scale(0.100000,-0.100000)"
fill="#000000" stroke="none">
<path d="M3362 6968 c-18 -10 -32 -14 -32 -10 0 4 -5 -1 -11 -11 -6 -9 -15
-14 -21 -11 -7 4 -8 2 -4 -5 4 -6 0 -14 -8 -17 -9 -3 -13 -10 -10 -15 3 -5 0
-9 -5 -9 -6 0 -11 -7 -11 -15 0 -8 -6 -15 -12 -15 -9 0 -8 -4 2 -10 8 -5 10
-10 4 -10 -6 0 -10 -10 -9 -22 3 -31 -5 -49 -18 -41 -6 4 -7 1 -2 -8 11 -17
14 -49 5 -49 -4 0 -6 -10 -5 -22 1 -13 -2 -31 -7 -42 -7 -13 -6 -21 3 -27 10
-6 11 -9 2 -9 -8 0 -13 -13 -13 -29 0 -17 -5 -33 -10 -36 -8 -5 -8 -11 -1 -19
6 -7 7 -16 3 -20 -4 -4 -8 -12 -8 -17 -1 -5 -2 -10 -3 -11 -2 -2 -4 -25 -5
-53 -2 -27 -5 -50 -6 -50 -1 0 -4 -13 -5 -30 -2 -16 -4 -30 -5 -30 -1 0 -3
-14 -4 -30 -1 -17 -6 -37 -11 -44 -6 -10 -4 -12 6 -6 11 7 12 6 3 -6 -6 -8
-10 -22 -9 -31 2 -10 0 -18 -5 -18 -4 0 -6 -11 -5 -25 4 -35 -5 -66 -18 -58
-6 4 -7 1 -1 -8 12 -20 14 -38 4 -44 -4 -3 -6 -15 -2 -27 4 -16 2 -19 -9 -13
-12 7 -12 6 -1 -7 7 -9 9 -19 4 -21 -4 -3 -9 -25 -11 -48 -1 -23 -6 -50 -11
-59 -5 -9 -5 -22 0 -30 5 -8 5 -19 1 -25 -9 -10 -21 -84 -24 -137 -1 -16 -4
-28 -7 -28 -3 0 -6 -15 -7 -33 -1 -33 -10 -98 -13 -107 -1 -3 -2 -9 -1 -14 1
-5 -4 -13 -11 -17 -10 -7 -10 -9 1 -9 11 0 11 -3 0 -17 -12 -15 -12 -16 1 -8
12 8 12 5 -1 -16 -12 -18 -14 -30 -7 -42 6 -12 5 -17 -4 -17 -9 0 -9 -3 2 -10
9 -6 10 -10 3 -10 -6 0 -12 -8 -12 -17 0 -10 -2 -31 -5 -48 -3 -16 -6 -47 -8
-67 -1 -21 -5 -38 -8 -38 -4 0 -6 -12 -5 -27 1 -16 -1 -39 -5 -53 -8 -30 3
-70 14 -52 4 7 13 9 19 5 19 -12 37 -12 37 -1 0 7 5 7 13 -1 10 -8 17 -7 25 1
9 9 12 9 12 0 0 -9 5 -10 18 -3 13 7 23 6 30 -1 7 -7 12 -8 12 -2 0 5 9 10 20
10 11 0 20 -4 20 -8 0 -5 9 -4 20 2 11 6 20 7 20 3 0 -4 11 -8 25 -8 14 0 25
4 25 8 0 4 8 4 17 -2 10 -5 26 -5 40 0 13 5 25 4 28 -1 4 -7 13 -6 25 0 13 7
20 6 23 -3 4 -9 7 -9 14 0 5 7 14 9 22 4 7 -5 28 -5 46 -1 21 5 38 3 44 -3 8
-8 11 -7 11 3 0 11 3 11 12 2 8 -8 15 -8 24 -1 8 7 14 7 19 -1 5 -8 11 -8 21
1 10 8 14 8 14 0 0 -7 8 -8 24 -1 15 5 27 5 35 -3 8 -8 11 -8 11 2 0 10 3 11
14 2 10 -9 16 -9 21 -1 5 8 11 8 19 1 9 -7 16 -7 24 1 9 9 12 9 12 0 0 -9 5
-10 19 -2 13 7 22 7 26 0 4 -7 13 -7 26 0 14 8 19 7 19 -1 0 -8 4 -8 15 1 12
10 15 10 15 0 0 -9 3 -10 13 -1 8 6 17 8 21 4 10 -11 46 -11 46 0 0 5 7 4 15
-3 12 -10 15 -10 15 0 0 9 4 9 13 2 8 -7 18 -7 27 -2 9 5 19 5 27 -2 7 -6 13
-6 13 -1 0 5 9 9 20 9 11 0 20 -4 20 -8 0 -5 9 -4 20 2 11 6 20 7 20 3 0 -4
11 -8 25 -8 14 0 25 4 25 8 0 4 8 4 17 -2 10 -5 26 -5 40 0 13 5 25 4 28 -1 4
-7 13 -6 26 0 14 8 19 7 19 -1 0 -8 4 -8 15 1 12 10 15 10 15 0 0 -10 3 -10
14 -1 9 8 16 8 20 2 4 -6 15 -7 30 -1 15 5 27 5 35 -3 8 -8 11 -8 11 2 0 10 3
11 14 2 10 -9 16 -9 21 -1 5 8 11 8 19 1 9 -7 16 -7 24 1 9 9 12 9 12 0 0 -8
7 -9 24 -2 15 5 27 5 35 -3 8 -8 11 -8 11 2 0 10 3 11 14 2 10 -9 16 -9 21 -1
5 8 11 8 19 1 9 -7 16 -7 24 1 9 9 12 9 12 0 0 -9 5 -10 19 -2 13 7 22 7 26 0
4 -7 13 -7 26 0 14 8 19 7 19 -1 0 -8 4 -8 15 1 12 10 15 10 15 0 0 -10 3 -10
14 -1 9 7 17 8 20 2 9 -15 87 27 124 67 18 19 30 37 28 40 -3 2 1 11 9 18 8 8
12 23 10 34 -2 11 2 20 8 20 7 0 6 4 -3 10 -8 5 -10 10 -4 10 6 0 10 11 9 25
-2 14 0 25 4 25 4 0 8 12 9 28 5 85 10 120 16 130 3 5 3 17 0 26 -3 9 -2 16 3
16 5 0 9 10 8 23 -1 12 0 27 4 32 3 6 7 35 9 65 1 30 8 58 15 62 9 6 9 8 -1 8
-7 0 -10 5 -7 10 6 10 11 31 17 80 2 14 8 28 13 32 6 5 6 8 -2 8 -8 0 -9 9 -3
31 5 18 7 36 4 40 -3 5 -1 9 4 9 5 0 8 12 6 27 -1 15 1 32 6 38 4 5 7 21 6 35
-2 14 4 36 12 49 8 13 9 21 4 17 -6 -4 -10 2 -9 14 1 11 4 20 7 20 4 0 7 12 7
28 0 36 9 88 18 101 3 6 1 11 -6 11 -8 0 -8 4 -1 13 6 7 9 25 8 40 -2 15 0 27
4 27 5 0 7 11 5 25 -1 14 1 28 5 30 5 3 7 21 6 40 -1 19 3 35 7 35 5 0 6 12 3
26 -4 14 -3 23 1 21 8 -5 11 12 15 110 2 29 7 53 12 53 4 0 6 6 3 14 -3 8 -1
17 6 20 9 3 8 5 -1 5 -8 1 -10 6 -5 14 4 6 9 21 10 32 1 11 5 36 8 55 2 19 6
47 8 61 2 14 7 31 11 37 4 7 1 12 -6 12 -8 0 -9 3 -3 8 6 4 12 18 13 33 l1 25
-987 0 c-929 0 -990 -1 -1020 -18z"/>
<path d="M420 4845 c0 -5 -20 -10 -45 -11 -25 0 -51 -7 -58 -14 -10 -10 -9
-11 3 -5 12 7 13 6 4 -6 -5 -8 -11 -27 -13 -44 -2 -31 -8 -70 -11 -70 -1 0 -3
-18 -5 -41 -5 -55 -8 -68 -20 -76 -6 -5 -5 -8 3 -8 7 0 10 -4 7 -10 -8 -13
-15 -46 -20 -95 -3 -22 -7 -51 -9 -65 -3 -14 -7 -39 -10 -57 -2 -18 -8 -38
-12 -44 -5 -8 -3 -9 6 -4 10 6 11 4 4 -6 -4 -8 -9 -18 -10 -24 -1 -5 -4 -24
-7 -42 -3 -17 -8 -37 -12 -42 -3 -6 0 -11 7 -11 10 0 11 -2 0 -8 -7 -5 -10
-16 -6 -25 3 -9 2 -17 -4 -17 -6 0 -9 -8 -7 -17 1 -10 -2 -28 -6 -40 -6 -15
-5 -23 2 -23 8 0 8 -4 1 -12 -10 -13 -22 -84 -24 -145 -1 -18 -4 -33 -8 -33
-4 0 -6 -13 -5 -30 1 -16 -1 -30 -5 -30 -4 0 -6 -16 -5 -35 1 -19 -1 -35 -5
-35 -3 0 -6 -10 -7 -22 -1 -30 -12 -110 -19 -139 -3 -13 -6 -39 -7 -56 -1 -18
-4 -33 -7 -33 -3 0 -6 -8 -6 -17 0 -10 -4 -40 -9 -68 -4 -27 -7 -58 -7 -67 0
-10 -5 -18 -11 -18 -8 0 -7 -3 2 -9 8 -5 9 -11 3 -15 -6 -3 -9 -20 -7 -36 3
-19 0 -30 -8 -30 -7 0 -6 -4 3 -10 12 -7 12 -10 1 -10 -7 0 -11 -6 -8 -15 4
-8 3 -17 -2 -19 -4 -3 -7 -21 -6 -41 0 -19 -2 -35 -5 -35 -4 0 -7 -12 -7 -27
-1 -25 -9 -84 -16 -116 -1 -8 95 -11 376 -12 370 0 377 0 378 20 1 11 1 26 0
33 -1 6 2 12 7 12 5 0 8 11 7 25 -2 14 0 27 4 29 4 3 7 23 6 45 -1 23 3 41 8
41 5 0 7 6 4 14 -3 7 0 19 6 26 9 10 9 14 -1 17 -10 4 -10 8 -1 19 6 7 9 20 6
28 -3 8 -3 17 1 20 3 4 7 14 8 24 1 9 5 37 8 62 3 25 8 59 11 75 6 34 14 90
18 120 1 11 7 23 12 27 6 5 5 8 -3 8 -8 0 -10 5 -5 13 9 14 12 31 15 74 2 38
1 38 153 38 72 -1 123 3 127 10 5 7 8 6 8 -1 0 -12 49 -12 69 0 6 4 11 2 11
-4 0 -6 5 -8 11 -4 6 3 30 8 52 10 92 9 167 24 167 35 0 5 6 6 13 3 8 -3 27 1
43 8 16 6 35 12 42 13 7 0 17 6 21 13 5 8 10 13 12 11 9 -5 49 13 49 22 0 5 7
9 15 9 8 0 15 5 15 11 0 5 5 7 12 3 6 -4 8 -3 5 3 -3 5 2 17 11 26 32 29 38
41 74 127 8 19 14 42 13 50 0 8 3 17 7 20 4 3 8 20 10 38 1 18 5 32 9 32 4 0
5 18 3 40 -3 29 0 39 8 34 7 -5 8 -3 3 5 -10 18 -13 71 -2 64 5 -3 8 3 7 13
-1 11 -1 21 0 24 2 5 8 69 12 133 1 15 6 27 12 27 6 0 5 4 -3 9 -13 8 -13 12
0 27 12 15 12 17 0 9 -11 -6 -13 -4 -8 7 3 9 0 21 -6 27 -8 8 -7 11 3 11 12 0
12 2 2 9 -8 4 -12 10 -10 12 8 10 -27 89 -39 89 -12 0 -17 13 -14 33 1 5 -3 6
-8 3 -5 -4 -14 2 -20 11 -6 10 -11 15 -11 10 0 -4 -18 4 -40 18 -22 14 -40 23
-40 20 0 -3 -10 0 -22 7 -13 7 -32 13 -43 13 -11 0 -26 4 -33 9 -11 7 -43 13
-112 21 -14 2 -26 4 -27 5 -9 8 -70 4 -82 -4 -11 -8 -13 -8 -8 1 9 15 -57 18
-380 18 -162 0 -253 4 -253 10 0 6 -3 6 -8 0 -9 -14 -145 -14 -154 0 -5 7 -8
7 -8 0 0 -14 -123 -14 -132 0 -5 6 -8 6 -8 0z m702 -350 c5 -6 8 -5 8 3 0 10
5 10 20 2 11 -6 24 -9 29 -6 5 3 19 -3 31 -14 13 -11 20 -20 16 -20 -4 0 0 -7
8 -16 18 -18 20 -30 6 -39 -6 -3 -6 -15 0 -29 5 -13 6 -27 2 -30 -3 -4 -7 -17
-8 -29 -2 -22 -9 -68 -19 -122 -9 -54 -28 -105 -38 -105 -6 0 -7 -3 -4 -6 3
-4 -4 -14 -16 -24 -26 -20 -83 -41 -91 -33 -3 3 -12 0 -21 -7 -8 -7 -15 -8
-15 -4 0 5 -17 9 -37 9 -38 0 -53 20 -28 37 6 5 5 8 -3 8 -9 0 -10 5 -4 18 5
9 8 27 7 40 -1 12 3 22 9 22 6 0 4 5 -4 10 -12 7 -12 10 -1 10 7 0 11 6 8 15
-4 8 -2 17 3 20 6 4 10 11 10 16 0 6 -5 7 -12 3 -7 -5 -8 -3 -2 7 4 8 10 23
12 34 5 33 10 60 12 60 1 0 3 16 5 35 1 19 6 53 10 75 4 22 7 47 7 56 0 13 10
16 46 16 26 -1 50 -6 54 -12z"/>
<path d="M2157 4830 c3 -12 0 -20 -7 -20 -10 0 -10 -3 0 -15 10 -12 10 -15 0
-15 -8 0 -10 -3 -7 -7 4 -3 1 -13 -6 -21 -9 -13 -9 -14 1 -8 13 8 17 -6 5 -18
-6 -6 -11 -27 -14 -76 -1 -8 -6 -21 -12 -27 -6 -9 -6 -13 2 -13 7 0 9 -4 6
-10 -7 -11 -10 -26 -19 -90 -10 -69 -11 -74 -19 -87 -5 -8 -3 -13 5 -13 8 0 9
-3 3 -8 -5 -4 -11 -16 -12 -27 -1 -11 -4 -36 -8 -55 -3 -19 -8 -51 -10 -70 -2
-19 -4 -35 -5 -35 -1 0 -3 -13 -6 -30 -5 -38 -12 -70 -14 -70 -1 0 -3 -20 -5
-45 -3 -41 -11 -85 -15 -85 -1 0 -3 -18 -4 -40 -2 -22 -4 -40 -5 -40 -3 0 -9
-34 -16 -90 -2 -22 -7 -56 -10 -75 -3 -19 -7 -51 -8 -70 -1 -19 -9 -41 -17
-48 -8 -8 -9 -11 -2 -7 8 4 11 -1 8 -17 -3 -13 -5 -23 -6 -23 -1 0 -4 -22 -6
-50 -3 -27 -8 -52 -12 -55 -4 -3 -8 -27 -10 -55 -2 -27 -9 -53 -15 -57 -7 -5
-8 -8 -2 -8 6 0 11 -9 11 -20 0 -11 -3 -20 -7 -20 -3 0 -5 -10 -5 -22 1 -13
-2 -29 -7 -35 -5 -7 -6 -13 -2 -13 4 0 1 -8 -6 -17 -10 -11 -10 -14 -1 -9 6 4
12 2 12 -3 0 -6 -3 -11 -7 -11 -5 0 -9 -15 -11 -33 -5 -72 -7 -82 -17 -89 -6
-5 -5 -8 4 -8 10 0 11 -3 2 -14 -9 -11 -9 -15 1 -19 10 -4 10 -6 1 -6 -8 -1
-13 -14 -13 -32 0 -19 -4 -28 -11 -23 -8 5 -8 1 0 -14 8 -15 8 -22 -2 -25 -6
-3 -1 -6 13 -7 52 -5 726 -6 738 -2 7 3 11 10 8 18 -3 7 0 15 7 18 9 3 8 5 -1
5 -8 1 -10 6 -6 13 8 13 11 26 17 84 2 16 6 34 8 40 3 5 4 19 3 32 0 12 2 22
6 22 4 0 6 10 5 23 -1 12 0 26 3 32 3 5 7 21 8 35 6 61 12 99 19 111 6 8 4 10
-4 4 -10 -6 -11 -3 -2 12 6 11 7 23 4 27 -3 3 0 6 8 6 11 0 11 2 -1 10 -10 6
-11 10 -3 10 8 0 11 11 9 30 -2 17 0 32 3 34 4 3 8 17 9 33 4 43 7 57 15 71 5
7 3 12 -5 12 -9 0 -10 3 -2 8 6 4 10 15 8 25 -1 9 2 17 7 17 4 0 6 7 3 15 -4
8 -1 22 5 29 9 10 9 16 1 21 -8 5 -8 11 -1 19 6 7 8 16 4 20 -8 8 15 26 35 26
7 0 11 -4 8 -8 -3 -5 1 -9 9 -9 8 0 15 4 15 8 0 10 41 2 53 -10 5 -5 15 -7 22
-4 20 7 57 -16 51 -33 -3 -8 -1 -14 5 -14 6 0 9 -10 8 -22 -2 -13 0 -29 4 -35
5 -7 4 -13 -1 -13 -5 0 -8 -17 -7 -37 1 -21 -1 -42 -4 -48 -5 -9 -11 -69 -12
-118 0 -11 -5 -15 -12 -10 -7 4 -6 0 2 -10 10 -13 11 -17 1 -17 -9 0 -7 -7 6
-22 13 -15 13 -18 3 -10 -14 10 -17 9 -22 -8 -3 -13 0 -23 9 -27 10 -4 9 -9
-8 -23 -19 -15 -20 -20 -10 -33 9 -11 10 -17 2 -22 -6 -4 -9 -13 -6 -21 3 -8
1 -14 -4 -14 -5 0 -7 -7 -4 -15 4 -8 1 -15 -5 -15 -9 0 -9 -5 -1 -20 6 -12 7
-20 1 -20 -5 0 -8 -11 -6 -25 1 -14 -2 -25 -7 -25 -6 0 -8 -6 -5 -14 3 -7 0
-19 -6 -26 -9 -10 -9 -11 1 -6 13 8 17 -6 5 -18 -6 -6 -11 -27 -14 -76 -1 -8
-7 -21 -13 -29 -8 -11 -8 -13 2 -7 6 4 12 4 12 -1 0 -6 639 -10 685 -4 9 1 15
29 18 94 1 15 5 27 8 27 4 0 7 12 6 28 0 15 3 45 7 67 4 22 8 56 10 75 2 19 5
36 6 38 2 1 4 7 5 12 1 6 4 13 5 18 1 4 2 19 2 35 1 15 5 27 11 27 5 0 4 7 -3
15 -10 12 -10 15 0 15 10 0 10 3 0 15 -10 12 -10 16 1 20 8 3 15 23 17 48 3
48 8 92 12 92 1 0 3 38 4 85 2 70 -1 88 -16 104 -10 11 -18 29 -18 40 0 10 -3
16 -6 13 -4 -3 -19 7 -34 23 -15 16 -30 26 -34 23 -3 -3 -6 -1 -6 6 0 7 -4 10
-9 7 -5 -4 -11 -2 -13 2 -3 9 -144 52 -170 52 -9 0 -19 4 -22 8 -3 5 13 8 34
8 22 -1 40 1 40 5 0 3 6 6 13 7 58 5 103 15 109 25 6 9 8 8 8 -1 0 -10 4 -10
16 2 8 9 20 17 25 17 5 1 14 2 19 3 6 0 14 7 19 14 5 8 12 14 17 15 5 1 25 17
44 36 19 18 29 30 22 26 -11 -6 -11 -3 0 14 7 12 16 21 20 21 5 0 8 9 8 20 0
11 4 20 8 20 4 0 8 8 9 18 5 48 9 67 14 72 4 3 9 23 11 46 3 23 9 47 13 54 6
9 4 11 -5 5 -10 -6 -11 -4 -4 6 13 21 14 123 0 131 -8 6 -8 8 1 8 12 0 12 17
0 38 -5 6 -6 16 -2 21 3 5 1 12 -5 16 -6 4 -8 11 -5 16 4 5 1 9 -5 9 -7 0 -10
6 -7 13 2 6 -3 18 -12 25 -13 11 -13 12 -1 6 8 -3 -11 19 -43 50 -33 31 -65
56 -73 56 -8 0 -14 5 -14 11 0 5 -4 7 -10 4 -5 -3 -10 -1 -10 4 0 6 -3 10 -7
9 -5 -1 -21 5 -38 12 -16 7 -38 12 -48 12 -9 0 -15 3 -13 7 3 4 -5 7 -17 8
-50 1 -125 11 -136 17 -6 4 -11 2 -11 -4 0 -7 -6 -8 -17 -2 -21 10 -168 14
-530 16 -168 1 -263 5 -263 11 0 6 -3 6 -8 0 -9 -14 -125 -14 -134 0 -5 6 -8
6 -8 0 0 -12 -159 -14 -177 -2 -7 5 -9 1 -6 -13z m803 -327 c21 -8 43 -14 58
-15 6 -1 12 -5 12 -10 0 -4 7 -8 16 -8 10 0 14 -6 10 -15 -3 -8 -1 -15 4 -15
10 0 7 -127 -4 -137 -3 -3 -6 -19 -6 -35 0 -16 -5 -28 -12 -28 -10 0 -9 -3 1
-9 10 -6 10 -10 1 -16 -6 -4 -9 -13 -6 -21 3 -8 -5 -24 -17 -35 -12 -12 -15
-19 -7 -15 8 5 0 -5 -18 -20 -31 -27 -47 -31 -152 -35 -40 -2 -47 0 -47 16 0
8 3 15 7 15 6 0 10 32 10 83 0 16 3 33 7 40 4 6 8 23 9 37 6 57 13 96 20 114
6 15 4 17 -7 11 -11 -7 -12 -6 -2 7 7 8 14 28 15 44 1 16 5 34 10 40 8 11 73
16 98 7z"/>
<path d="M4877 4834 c-1 -1 -33 -4 -72 -8 -75 -6 -116 -11 -180 -23 -22 -4
-44 -8 -50 -8 -5 0 -17 -5 -25 -10 -8 -5 -19 -10 -25 -10 -30 -3 -85 -18 -85
-24 0 -4 -6 -8 -12 -8 -20 0 -108 -44 -108 -54 0 -5 -6 -6 -13 -3 -8 3 -20 -2
-27 -10 -7 -9 -17 -13 -23 -9 -5 3 -8 2 -5 -3 3 -5 -3 -18 -14 -29 -17 -18
-18 -18 -12 -1 4 10 -17 -8 -47 -41 -30 -32 -57 -59 -61 -61 -5 -2 -8 -10 -8
-18 0 -8 -6 -17 -14 -20 -8 -3 -12 -12 -9 -20 3 -8 1 -14 -4 -14 -5 0 -9 -10
-10 -22 -1 -11 -6 -24 -10 -27 -9 -7 -12 -19 -15 -56 -1 -14 -5 -25 -8 -25 -3
0 -6 -8 -7 -17 -1 -10 -4 -31 -8 -48 -6 -29 -16 -80 -19 -100 -1 -5 -6 -16
-10 -24 -7 -10 -5 -12 3 -6 10 6 11 3 2 -13 -6 -12 -11 -25 -10 -29 1 -4 0
-10 -1 -13 -2 -6 -7 -35 -15 -95 -3 -22 -7 -49 -9 -60 -2 -11 -4 -28 -5 -38
-1 -12 -5 -16 -13 -11 -10 6 -10 5 -1 -8 7 -8 10 -18 7 -21 -4 -3 -8 -25 -9
-49 -1 -24 -5 -50 -8 -58 -4 -8 -8 -26 -9 -40 -2 -14 -6 -30 -10 -35 -4 -6 -3
-17 2 -25 5 -8 4 -22 -2 -34 -6 -11 -11 -36 -12 -55 -1 -20 -4 -40 -6 -46 -3
-5 -5 -26 -5 -45 0 -19 -4 -38 -10 -42 -6 -5 -5 -8 3 -8 8 0 10 -5 6 -12 -10
-16 -5 -110 7 -124 5 -6 4 -16 -4 -24 -9 -10 -9 -11 1 -6 11 6 17 -5 13 -26 0
-5 3 -8 9 -8 5 0 10 -7 10 -15 0 -8 5 -15 10 -15 6 0 10 -7 10 -15 0 -8 8 -15
18 -15 14 0 15 -2 2 -10 -13 -8 -13 -10 1 -10 9 0 27 -13 40 -29 13 -16 27
-27 31 -25 5 3 11 -2 14 -10 3 -9 15 -16 25 -16 10 0 19 -4 19 -10 0 -5 9 -10
20 -10 11 0 20 -5 20 -11 0 -5 4 -8 9 -4 5 3 12 1 16 -5 4 -6 11 -8 16 -5 5 4
9 1 9 -5 0 -6 4 -9 9 -5 5 3 12 1 16 -5 3 -5 17 -10 31 -10 13 0 24 -6 24 -12
0 -9 4 -8 10 2 6 10 10 11 10 2 0 -6 3 -11 8 -10 19 5 118 -16 124 -26 5 -8 8
-7 8 2 0 7 5 10 12 6 6 -4 35 -8 64 -9 28 -2 57 -5 62 -9 6 -3 13 0 15 6 3 7
6 9 6 3 1 -10 190 -11 217 -1 7 3 16 1 20 -5 4 -6 11 -6 20 2 8 6 14 8 14 4 0
-4 7 -2 15 5 11 9 15 9 15 1 0 -7 4 -10 9 -7 8 5 25 9 106 21 35 5 70 13 70
15 0 2 20 7 60 15 16 3 36 12 44 18 12 9 13 9 7 0 -5 -9 -2 -11 8 -7 9 3 16 9
16 13 0 4 6 8 13 8 18 0 124 50 132 63 3 5 11 8 16 5 5 -4 9 -1 9 6 0 7 3 10
6 6 9 -8 33 16 26 27 -3 5 0 6 5 3 6 -4 16 0 23 8 7 8 17 12 24 8 6 -3 8 -3 4
1 -3 4 9 23 28 43 19 19 34 39 34 44 0 6 4 8 9 5 5 -3 12 6 15 19 4 17 11 23
19 19 9 -5 9 -4 0 6 -9 10 -8 16 3 27 8 8 14 23 14 34 0 10 4 19 8 19 4 0 9
12 10 26 1 14 5 31 9 37 4 7 6 20 4 31 -1 10 1 16 6 13 4 -3 9 9 10 26 5 77 9
97 17 97 5 0 6 3 3 6 -3 4 -2 16 4 27 8 15 8 18 -1 12 -9 -6 -9 -3 -2 11 9 18
20 84 21 127 1 10 4 16 9 14 4 -3 6 11 6 31 -1 21 3 45 8 55 6 11 5 17 -3 17
-8 0 -8 4 -1 13 6 7 13 32 14 55 2 23 5 42 9 42 5 0 6 13 10 85 0 19 4 35 8
35 3 0 7 15 8 33 2 68 7 103 15 120 6 11 5 17 -2 17 -7 0 -8 6 -2 18 5 9 9 36
8 60 -1 23 3 42 9 42 5 0 3 5 -5 10 -11 7 -11 10 -2 10 9 0 10 5 3 19 -6 10
-8 21 -5 23 2 3 -2 18 -10 33 -8 16 -13 32 -10 37 3 4 0 8 -5 8 -6 0 -11 7
-11 15 0 8 -4 15 -10 15 -5 0 -10 7 -10 15 0 8 -5 15 -11 15 -5 0 -7 5 -4 10
3 6 1 10 -5 10 -6 0 -21 10 -34 23 -38 36 -66 57 -76 57 -6 0 -10 5 -10 10 0
6 -8 10 -17 8 -12 -2 -17 2 -15 12 2 8 1 12 -3 8 -4 -3 -43 6 -88 22 -85 29
-172 48 -200 44 -9 -1 -17 1 -17 5 0 4 -19 8 -42 9 -91 4 -308 8 -311 6z m129
-331 c25 -20 26 -25 21 -95 -3 -40 -6 -74 -7 -75 -1 -2 -3 -13 -3 -25 -1 -13
-8 -29 -17 -36 -8 -8 -10 -11 -4 -8 8 4 11 -5 10 -24 0 -17 -4 -30 -7 -30 -4
0 -6 -16 -5 -35 1 -19 -3 -35 -8 -35 -5 0 -6 -3 -3 -7 4 -3 1 -13 -6 -21 -9
-13 -9 -14 1 -8 6 4 12 3 12 -3 0 -5 -4 -12 -9 -16 -5 -3 -8 -21 -6 -40 2 -23
-1 -33 -8 -28 -6 4 -8 0 -4 -9 3 -9 0 -21 -6 -27 -8 -8 -8 -11 2 -11 10 0 10
-4 3 -12 -12 -15 -12 -16 -12 -59 0 -21 -4 -28 -12 -23 -10 6 -10 4 0 -8 7 -9
9 -19 4 -22 -5 -3 -8 -19 -7 -36 1 -16 -2 -30 -7 -30 -5 0 -6 -4 -3 -10 3 -5
1 -19 -6 -31 -8 -16 -8 -20 1 -14 9 6 9 3 1 -13 -6 -10 -8 -29 -6 -41 2 -11 0
-21 -5 -21 -4 0 -7 -14 -6 -31 1 -16 -1 -32 -5 -35 -5 -3 -6 -11 -2 -19 3 -8
1 -15 -3 -15 -5 0 -10 -15 -10 -33 -1 -17 -5 -50 -9 -72 -4 -22 -8 -44 -9 -50
-1 -5 -5 -15 -9 -22 -4 -6 -4 -18 -1 -27 4 -9 1 -16 -6 -16 -7 0 -10 -7 -6
-15 3 -8 1 -15 -4 -15 -5 0 -11 -9 -15 -19 -6 -19 -40 -38 -59 -33 -4 2 -13
-1 -20 -6 -9 -7 -31 -9 -38 -3 -2 2 -14 4 -28 7 -14 2 -30 6 -36 8 -15 6 -16
146 -2 164 7 8 7 12 -2 12 -10 0 -10 3 0 15 7 8 10 24 7 35 -3 11 -2 20 3 20
4 0 5 11 2 25 -2 14 0 25 4 25 5 0 10 12 10 28 4 68 9 112 15 112 3 0 6 12 6
28 2 36 12 102 20 127 4 11 8 40 10 65 5 64 6 70 12 70 3 0 6 19 6 43 -1 23 3
47 8 54 5 7 6 17 2 23 -3 5 -1 10 5 10 6 0 8 5 5 10 -4 6 -4 19 0 28 4 9 9 33
10 52 2 19 6 51 10 70 3 19 7 44 8 55 2 11 5 25 9 30 3 6 4 18 3 28 -2 9 1 17
6 17 4 0 6 7 3 15 -4 8 -1 15 5 15 6 0 11 5 11 11 0 5 -6 7 -12 3 -12 -7 7 18
39 53 13 15 77 31 111 28 12 -1 34 -11 48 -22z"/>
<path d="M6776 4833 c-1 -1 -37 -4 -81 -7 -104 -7 -157 -16 -172 -28 -9 -7
-13 -7 -13 1 0 8 -5 9 -19 1 -11 -5 -29 -10 -41 -10 -13 0 -19 -4 -14 -12 4
-7 3 -8 -5 -4 -12 8 -113 -24 -165 -52 -17 -9 -33 -16 -36 -17 -11 -1 -66 -41
-82 -59 -10 -10 -18 -16 -18 -13 0 4 -9 -2 -21 -14 -11 -11 -18 -23 -15 -26 3
-4 -3 -13 -14 -20 -11 -8 -18 -18 -15 -22 2 -5 -4 -19 -15 -31 -11 -13 -20
-31 -20 -40 0 -9 -3 -20 -7 -24 -4 -3 -8 -12 -9 -19 -1 -7 -5 -25 -9 -42 -4
-16 -7 -38 -7 -47 1 -10 -2 -18 -6 -18 -4 0 -7 -17 -6 -38 0 -20 -4 -45 -9
-56 -7 -14 -6 -17 5 -10 10 6 11 5 1 -8 -7 -8 -10 -18 -6 -22 7 -7 11 -24 15
-68 1 -16 6 -28 10 -28 4 0 8 -12 8 -27 0 -22 2 -25 10 -13 8 12 10 11 10 -7
0 -13 5 -23 12 -23 6 0 9 -3 5 -6 -10 -11 81 -89 134 -115 27 -13 49 -27 49
-31 0 -5 9 -8 20 -8 11 0 20 -5 20 -11 0 -5 4 -8 9 -4 5 3 15 0 23 -7 7 -7 20
-14 28 -16 8 -2 17 -8 18 -13 2 -5 8 -7 13 -3 5 3 9 0 9 -7 0 -7 3 -10 6 -6 4
3 19 0 34 -8 15 -8 30 -11 34 -8 3 4 6 1 6 -5 0 -7 5 -12 10 -12 16 0 104 -43
112 -54 4 -6 8 -7 8 -2 0 4 11 1 25 -8 13 -9 31 -16 40 -16 8 0 15 -4 15 -10
0 -5 9 -10 20 -10 11 0 20 -5 20 -11 0 -5 4 -8 9 -5 5 3 14 -1 21 -9 7 -8 18
-15 25 -15 7 0 18 -7 25 -15 6 -8 17 -13 23 -12 6 1 11 -4 12 -11 0 -7 6 -16
13 -21 8 -5 13 -11 13 -15 -1 -3 0 -7 0 -8 6 -10 4 -158 -2 -158 -4 0 -6 -8
-4 -17 1 -10 -4 -28 -11 -40 -8 -13 -12 -23 -9 -23 3 0 -5 -11 -17 -25 -12
-14 -28 -25 -35 -25 -7 0 -13 -4 -13 -8 0 -5 -10 -8 -22 -7 -13 1 -27 0 -33
-3 -14 -8 -45 -10 -45 -2 0 3 -8 6 -17 7 -63 5 -67 8 -66 51 1 6 -2 12 -6 12
-12 0 -9 34 3 42 8 6 8 8 0 8 -8 0 -9 11 -4 37 5 20 7 41 4 45 -3 4 1 8 8 8 9
0 9 3 -2 10 -12 7 -12 10 -1 10 7 0 11 6 8 15 -4 8 -3 17 2 19 4 3 7 15 6 28
-1 13 2 35 6 50 5 18 3 30 -4 35 -13 8 -686 11 -688 3 -1 -3 -3 -15 -4 -27 -1
-12 -5 -30 -9 -40 -7 -16 -14 -84 -19 -178 -1 -16 -6 -36 -11 -44 -6 -10 -5
-12 2 -7 8 5 12 -1 11 -16 -1 -39 11 -101 23 -115 6 -7 7 -13 4 -13 -8 0 7
-19 57 -74 22 -22 42 -41 45 -41 4 0 6 -4 4 -8 -1 -5 2 -6 7 -3 5 4 12 2 16
-4 4 -6 11 -8 16 -5 5 4 9 1 9 -5 0 -6 4 -9 9 -5 5 3 15 0 23 -7 7 -7 22 -15
33 -16 11 -2 22 -7 25 -10 5 -7 21 -12 55 -17 11 -1 27 -5 35 -8 50 -20 111
-29 270 -43 81 -7 250 -10 250 -4 0 3 22 5 50 4 27 -1 50 3 50 9 0 5 7 4 15
-3 12 -10 15 -10 15 0 0 10 3 10 15 0 8 -7 15 -8 15 -3 0 6 10 9 23 9 12 -1
27 0 32 3 6 3 17 7 25 8 8 1 24 4 35 5 11 2 26 7 33 11 6 5 12 6 12 2 0 -3 10
-1 21 6 13 6 19 7 15 1 -8 -13 23 -9 32 4 7 9 15 11 54 19 9 2 25 8 36 14 11
6 22 7 26 4 3 -3 6 -1 6 5 0 7 9 12 20 12 11 0 20 5 20 12 0 6 3 8 7 5 3 -4
12 -2 20 4 7 6 13 8 13 4 0 -5 9 2 20 15 13 14 27 21 39 17 11 -3 20 -2 19 2
-2 21 3 41 11 37 5 -3 16 6 25 19 10 14 22 23 28 19 6 -4 8 -3 5 4 -10 15 3
43 16 35 6 -4 8 0 4 10 -3 9 0 23 8 31 8 7 11 16 8 20 -4 3 0 6 8 6 11 0 11 2
-1 10 -8 5 -10 10 -5 10 6 0 11 10 12 22 1 11 6 24 10 27 4 3 9 15 10 26 2 11
6 43 9 70 4 28 7 58 6 68 0 9 4 17 10 17 7 0 6 5 -1 14 -9 11 -9 20 -2 34 7
13 7 22 -1 30 -7 7 -8 12 -4 12 5 0 3 7 -4 15 -10 12 -10 15 0 15 8 0 10 7 5
18 -7 17 -13 40 -14 55 -1 5 -5 6 -10 3 -5 -4 -8 2 -6 11 1 10 -4 26 -12 35
-8 9 -12 22 -8 27 3 6 1 11 -6 11 -6 0 -28 18 -49 39 -21 22 -40 37 -43 35 -2
-2 -15 6 -29 18 -14 13 -31 24 -39 26 -8 2 -17 8 -20 14 -3 5 -9 8 -12 6 -4
-1 -14 4 -24 12 -10 9 -21 16 -26 17 -4 1 -38 17 -75 34 -37 18 -71 31 -76 30
-5 -1 -17 5 -26 14 -10 9 -24 18 -32 19 -35 6 -58 18 -52 28 4 6 2 8 -4 4 -6
-3 -23 -1 -39 6 -15 6 -31 11 -35 10 -5 -1 -8 2 -8 8 0 5 -7 7 -15 4 -8 -4
-15 -1 -15 5 0 6 -6 11 -13 11 -20 0 -77 30 -77 40 0 5 -6 7 -13 4 -7 -2 -22
4 -34 15 -11 11 -24 17 -27 14 -3 -4 -6 1 -6 10 0 8 -5 17 -10 19 -10 3 -13
17 -24 96 -2 12 1 25 5 28 5 3 9 16 9 30 0 14 4 23 9 20 5 -4 8 1 7 10 -6 38
79 92 139 88 31 -2 77 -11 79 -16 0 -2 7 -13 13 -25 9 -15 9 -24 2 -28 -7 -5
-7 -11 0 -19 7 -9 7 -17 -2 -26 -10 -10 -9 -11 1 -5 11 6 12 3 3 -12 -5 -11
-10 -28 -10 -39 0 -25 -7 -65 -16 -86 -4 -11 -3 -18 5 -18 6 0 8 -5 4 -12 -5
-7 -3 -8 6 -3 17 10 200 12 200 2 0 -5 5 -5 11 -1 19 11 103 11 111 -1 5 -6 8
-6 8 0 0 10 109 11 135 1 7 -2 16 -2 19 1 10 10 96 10 96 0 0 -5 6 -4 14 2 16
13 37 11 48 -4 5 -6 8 -6 8 2 0 6 9 9 20 6 15 -4 18 -1 15 16 -2 12 0 21 5 21
4 0 7 14 6 30 -1 17 3 30 8 30 6 0 4 5 -4 10 -10 6 -11 10 -3 10 8 0 11 9 9
23 -2 12 1 28 6 35 6 6 6 12 1 12 -10 0 -10 40 0 57 4 7 3 14 -3 18 -5 3 -10
11 -10 16 0 6 5 7 11 3 8 -5 8 -1 0 14 -6 11 -11 30 -11 41 0 12 -4 21 -10 21
-5 0 -10 7 -10 16 0 18 -66 85 -74 76 -4 -3 -6 0 -6 6 0 7 -5 12 -11 12 -6 0
-25 10 -42 22 -17 12 -27 16 -22 7 5 -7 -2 -5 -14 6 -13 11 -25 19 -27 18 -2
-1 -9 -1 -16 2 -57 17 -89 26 -109 30 -107 22 -149 27 -211 29 -32 0 -58 5
-58 10 0 5 -7 3 -15 -4 -8 -7 -15 -9 -15 -4 0 7 -227 14 -234 7z"/>
<path d="M2756 2783 c-3 -4 -16 -8 -28 -10 -12 -2 -25 -8 -29 -14 -4 -8 -8 -7
-12 2 -4 10 -6 9 -6 -3 -1 -10 -8 -18 -16 -18 -8 0 -15 -7 -15 -15 0 -8 -7
-15 -16 -15 -8 0 -12 -4 -9 -10 3 -5 2 -10 -3 -10 -12 0 -24 -35 -25 -72 -1
-16 -5 -28 -10 -28 -5 0 -6 -11 -3 -25 4 -14 3 -25 -1 -25 -5 0 -9 -19 -10
-43 -4 -79 -6 -87 -13 -92 -4 -2 -6 -18 -5 -35 1 -16 -3 -30 -9 -30 -6 0 -4
-5 4 -10 8 -5 10 -10 5 -10 -6 0 -12 -10 -13 -22 0 -13 -2 -42 -4 -65 -2 -24
-7 -43 -12 -43 -4 0 -5 -7 -2 -16 3 -8 1 -25 -5 -36 -9 -16 -8 -19 2 -13 8 6
10 4 4 -6 -5 -7 -9 -25 -10 -40 -1 -15 -8 -35 -16 -45 -9 -11 -9 -15 -1 -10
15 9 16 -6 0 -22 -9 -9 -9 -12 0 -12 9 0 8 -8 -3 -30 -12 -23 -12 -30 -3 -30
8 0 9 -3 3 -8 -6 -4 -10 -20 -10 -35 1 -16 -3 -31 -7 -33 -5 -3 -6 -9 -3 -14
3 -5 1 -12 -5 -15 -8 -5 -8 -11 0 -20 8 -9 8 -15 0 -20 -6 -3 -8 -11 -5 -16 4
-5 3 -15 -1 -21 -12 -19 -12 -48 0 -48 7 0 6 -3 -1 -8 -7 -4 -13 -23 -15 -41
-1 -18 -6 -35 -11 -38 -4 -2 -3 -11 4 -19 9 -11 9 -14 -1 -14 -8 0 -10 -3 -7
-7 4 -3 1 -13 -6 -21 -9 -13 -9 -14 1 -8 6 4 12 2 12 -3 0 -6 -4 -11 -8 -11
-4 0 -7 -15 -7 -32 1 -18 -1 -37 -4 -43 -2 -5 -6 -21 -7 -35 -2 -14 -6 -43 -9
-65 -4 -22 -8 -53 -10 -70 -2 -16 -4 -30 -5 -30 -1 0 -3 -13 -5 -30 -1 -16 -3
-30 -4 -30 -4 0 -14 -78 -14 -112 -1 -18 -4 -33 -7 -33 -3 0 -6 -21 -8 -46 -1
-25 -7 -55 -13 -66 -8 -16 -8 -19 1 -13 9 5 9 1 -1 -16 -7 -13 -13 -24 -13
-25 -1 0 5 -8 13 -18 10 -12 17 -13 26 -6 9 7 15 7 19 1 4 -6 18 -6 36 -1 16
5 32 5 35 0 6 -9 24 -8 43 3 7 5 12 3 12 -3 0 -7 6 -8 19 0 14 7 22 7 26 0 5
-8 11 -7 21 1 11 9 14 9 14 -1 0 -10 3 -10 15 0 12 10 15 10 15 0 0 -10 3 -10
15 0 11 9 15 9 15 1 0 -8 5 -9 19 -1 14 7 22 7 26 0 5 -8 12 -7 23 2 9 7 13 8
9 2 -4 -7 2 -10 18 -8 14 2 36 6 50 8 14 2 25 0 25 -4 0 -10 20 -8 38 3 6 5
12 4 12 -2 0 -7 8 -7 25 -1 14 5 25 6 25 2 0 -11 64 -9 72 2 4 6 12 5 21 -3
11 -8 17 -9 22 -1 5 8 11 8 19 1 9 -7 17 -7 26 2 10 10 11 9 5 -3 -8 -13 -7
-13 8 -1 11 8 17 9 17 2 0 -7 8 -8 23 -2 13 5 30 6 37 1 7 -5 24 -4 36 0 15 6
26 5 30 -1 4 -6 11 -6 20 2 11 9 14 8 14 -2 0 -12 2 -12 9 0 5 7 11 9 14 4 6
-10 59 -9 76 2 6 3 11 1 11 -6 0 -9 3 -9 14 0 9 8 16 8 20 2 5 -7 15 -7 31 -1
16 6 25 6 25 -1 0 -6 7 -6 20 1 15 8 20 8 20 -1 0 -9 3 -9 14 0 10 8 16 9 21
1 4 -7 12 -7 26 0 14 8 19 7 19 -2 0 -9 3 -9 12 0 8 8 15 9 25 1 10 -9 13 -8
13 1 0 10 3 10 14 1 10 -8 16 -9 21 -1 3 6 12 7 18 3 16 -10 37 -10 65 -1 14
5 22 3 22 -3 0 -8 4 -8 14 0 9 8 16 8 20 2 5 -7 15 -7 31 -1 18 7 25 6 25 -3
0 -8 4 -7 10 3 9 13 10 13 10 0 0 -9 3 -11 8 -5 8 12 42 16 42 5 0 -6 47 -6
75 0 6 1 12 2 15 0 18 -7 81 -3 83 5 2 6 9 5 19 -2 11 -10 17 -10 26 -1 7 7
12 8 12 2 0 -5 11 -9 25 -9 14 0 25 3 25 7 0 8 27 4 36 -5 4 -3 15 -2 26 4 10
5 23 7 28 4 5 -3 12 0 15 6 4 5 14 8 22 5 8 -3 12 -2 9 3 -3 4 6 14 19 21 14
7 25 20 25 27 0 8 5 11 10 8 9 -6 14 8 11 28 0 4 5 7 13 7 8 0 14 11 14 28 1
30 9 87 12 87 1 0 4 23 6 50 1 28 3 52 4 55 2 3 2 8 1 13 0 4 2 7 7 7 4 0 8
12 8 28 2 45 10 107 15 117 3 6 5 22 4 38 0 15 2 27 5 27 3 0 5 19 5 43 0 23
3 48 8 54 5 7 10 32 12 55 1 24 5 63 9 88 4 25 8 52 9 60 2 8 6 21 10 28 5 7
3 12 -3 12 -8 0 -8 6 0 20 6 10 11 37 13 60 1 22 7 40 12 40 6 0 3 5 -5 10 -8
5 -10 10 -4 10 6 0 11 19 12 41 1 23 8 49 14 57 11 13 11 14 -1 7 -10 -6 -12
-4 -6 5 5 8 10 30 12 49 2 20 6 52 9 71 2 19 6 49 8 65 2 17 5 30 6 30 1 0 3
16 5 35 2 19 4 37 5 40 2 3 4 16 5 30 2 14 4 28 5 33 1 4 4 16 5 27 1 11 3 21
4 23 2 2 5 24 15 122 3 28 6 50 7 50 1 0 3 9 5 20 6 36 9 50 17 62 4 6 3 14
-3 18 -6 4 -7 12 -3 18 10 17 15 57 9 74 -4 10 -10 11 -25 3 -14 -7 -22 -7
-26 0 -5 8 -11 8 -19 1 -7 -6 -16 -7 -20 -3 -12 11 -76 9 -76 -3 0 -6 -3 -7
-8 0 -10 14 -56 15 -64 1 -5 -6 -8 -7 -8 -1 0 12 -40 13 -58 1 -7 -4 -12 -3
-12 2 0 8 -45 10 -75 2 -5 -1 -12 -1 -15 0 -18 8 -66 5 -72 -4 -5 -7 -8 -7 -8
-1 0 12 -40 13 -58 1 -7 -4 -12 -3 -12 2 0 8 -45 10 -75 2 -5 -1 -12 -1 -15 0
-18 8 -66 5 -72 -4 -5 -7 -8 -7 -8 -1 0 12 -40 13 -58 1 -7 -4 -12 -3 -12 2 0
8 -45 10 -75 2 -5 -1 -12 -1 -15 0 -18 8 -66 5 -72 -4 -5 -7 -8 -7 -8 -1 0 12
-40 13 -58 1 -7 -4 -12 -3 -12 2 0 8 -45 10 -75 2 -5 -1 -12 -1 -15 0 -18 8
-66 5 -72 -4 -5 -7 -8 -7 -8 -1 0 12 -40 13 -58 1 -7 -4 -12 -3 -12 2 0 8 -45
10 -75 2 -5 -1 -12 -1 -15 0 -18 8 -66 5 -72 -4 -5 -7 -8 -7 -8 -1 0 12 -40
13 -58 1 -7 -4 -12 -3 -12 2 0 8 -45 10 -75 2 -5 -1 -12 -1 -15 0 -18 8 -66 5
-72 -4 -5 -7 -8 -7 -8 -1 0 12 -40 13 -58 1 -7 -4 -12 -3 -12 2 0 12 -83 9
-92 -3 -5 -7 -8 -6 -8 1 0 12 -45 13 -56 1 -4 -4 -12 -2 -19 3 -7 5 -15 7 -19
3z m782 -643 c1 -2 5 -3 10 -4 25 -4 64 -45 65 -69 1 -15 5 -27 9 -27 11 0
-14 -63 -34 -84 -10 -11 -18 -17 -18 -13 0 3 -12 0 -26 -8 -18 -9 -34 -11 -50
-4 -13 4 -24 6 -24 3 0 -4 -14 9 -31 27 -19 20 -29 40 -26 51 3 10 1 18 -3 18
-11 0 0 39 18 68 17 26 59 49 87 46 11 -1 21 -3 23 -4z m-370 -38 c9 9 12 9
12 -1 0 -8 6 -11 16 -7 8 3 12 2 9 -3 -3 -5 4 -12 15 -16 11 -3 19 -9 18 -13
-1 -4 4 -18 11 -31 11 -19 11 -22 -1 -15 -11 6 -11 5 0 -8 9 -11 10 -18 2 -23
-6 -3 -8 -10 -5 -15 8 -12 -6 -41 -16 -34 -5 3 -9 -4 -9 -15 0 -14 -5 -19 -15
-15 -8 4 -15 1 -15 -5 0 -8 -16 -11 -45 -10 -25 2 -45 6 -45 11 0 4 -6 8 -13
8 -15 0 -60 82 -49 90 4 3 9 16 11 30 6 45 69 89 97 68 6 -4 16 -2 22 4z m732
-5 c0 -4 4 -6 8 -3 5 3 18 -3 29 -14 12 -10 24 -16 27 -13 5 6 10 -22 9 -54
-1 -7 3 -13 8 -13 5 0 6 -7 3 -15 -4 -8 -10 -13 -14 -10 -5 3 -6 -4 -3 -15 3
-10 -2 -26 -11 -35 -9 -9 -16 -14 -16 -10 0 4 -7 -1 -16 -10 -17 -16 -94 -19
-94 -2 0 4 -3 6 -7 4 -5 -2 -16 4 -25 15 -10 10 -15 18 -10 18 4 0 1 4 -6 9
-18 11 -16 111 2 108 6 -1 10 5 11 13 0 8 9 16 20 18 11 2 23 7 28 11 10 10
57 9 57 -2z m-1027 -40 c29 -31 30 -33 32 -87 2 -51 -49 -98 -102 -96 -44 2
-89 29 -100 59 -11 33 -10 60 1 76 9 12 8 13 -4 6 -8 -5 -2 6 14 25 16 19 33
34 38 33 4 -2 8 1 8 6 0 4 19 8 43 7 33 0 48 -7 70 -29z m1399 18 c10 -4 15
-11 12 -16 -3 -5 -1 -9 5 -9 8 0 23 -29 26 -50 0 -3 4 -11 8 -17 5 -7 4 -13
-2 -13 -5 0 -8 -9 -6 -19 2 -11 -3 -22 -11 -25 -9 -3 -13 -9 -11 -13 6 -10
-13 -28 -30 -29 -29 -2 -34 -4 -28 -13 3 -6 -6 -6 -24 -1 -16 4 -32 6 -35 2
-3 -3 -6 0 -6 6 0 7 -7 12 -15 12 -12 0 -36 30 -41 53 -1 4 -3 10 -4 15 -7 21
-4 39 8 61 12 19 12 22 1 16 -20 -11 23 28 47 42 20 12 75 12 106 -2z m-837
-175 c5 8 11 8 21 -1 8 -6 14 -7 14 -3 0 5 23 9 50 9 28 0 50 -3 50 -8 0 -4 8
-4 17 1 20 12 83 -15 83 -35 0 -7 9 -18 20 -25 11 -7 20 -17 20 -23 0 -6 9
-16 20 -23 11 -7 20 -19 20 -27 0 -8 7 -15 16 -15 8 0 13 -4 10 -8 -3 -5 10
-25 28 -45 19 -21 32 -37 29 -37 -2 0 2 -7 11 -15 12 -12 13 -22 4 -45 -5 -17
-15 -27 -21 -23 -5 3 -7 1 -4 -4 8 -13 -38 -65 -48 -55 -4 4 -5 0 -3 -8 2 -9
-3 -14 -12 -12 -8 2 -12 0 -8 -3 4 -4 -8 -22 -27 -40 -18 -18 -31 -35 -28 -38
2 -3 -5 -8 -16 -12 -12 -4 -18 -11 -15 -17 5 -7 1 -9 -9 -5 -10 4 -16 2 -14
-5 4 -19 -54 -20 -74 -2 -18 16 -23 15 -16 -3 1 -5 6 -7 12 -5 5 2 1 -7 -10
-19 -11 -12 -15 -19 -9 -16 14 8 26 -30 13 -39 -6 -3 -6 -11 -1 -17 5 -7 10
-32 12 -57 4 -70 8 -105 10 -105 1 0 3 -10 6 -23 3 -16 0 -21 -8 -17 -7 4 -5
0 5 -8 14 -11 15 -16 5 -20 -10 -4 -10 -8 2 -16 12 -8 12 -11 1 -11 -11 0 -11
-3 -1 -15 7 -9 10 -18 7 -22 -4 -3 -2 -12 4 -20 9 -10 8 -13 -1 -13 -10 0 -10
-3 0 -15 7 -9 8 -15 2 -15 -5 0 -8 -8 -5 -18 4 -16 -3 -18 -64 -18 -49 1 -67
5 -66 14 2 6 -1 12 -7 12 -6 0 -9 18 -7 41 2 22 0 42 -4 45 -4 2 -6 12 -4 22
1 9 -2 23 -8 30 -6 8 -6 12 2 12 7 0 9 5 4 13 -4 6 -9 28 -10 47 -6 78 -14
144 -19 149 -2 2 -10 -1 -17 -9 -9 -10 -9 -11 1 -6 6 4 12 4 12 1 0 -11 -27
-34 -34 -30 -3 3 -2 -1 4 -7 15 -18 12 -31 -5 -24 -8 3 -14 2 -13 -2 5 -18
-13 -73 -22 -67 -6 3 -7 0 -4 -9 3 -9 1 -16 -5 -16 -6 0 -8 -6 -5 -14 3 -8 0
-17 -5 -21 -6 -3 -9 -11 -6 -16 3 -5 -2 -6 -11 -2 -14 5 -16 2 -12 -15 4 -12
2 -25 -3 -28 -5 -3 -7 -10 -4 -15 4 -5 1 -9 -6 -9 -7 0 -9 -3 -6 -7 4 -3 -1
-15 -10 -26 -10 -11 -12 -17 -6 -13 9 5 11 2 7 -8 -3 -9 -10 -16 -16 -16 -5 0
-6 -4 -3 -10 7 -11 6 -11 -78 -15 -59 -2 -77 6 -58 29 6 7 8 16 4 19 -3 4 -1
7 5 7 7 0 11 3 11 8 -4 22 2 42 11 37 6 -3 7 1 4 9 -4 11 0 16 12 16 16 0 17
2 4 10 -13 9 -13 10 1 10 9 0 15 9 16 23 1 50 3 58 15 51 6 -4 8 -3 5 3 -3 5
3 24 14 42 11 18 15 30 9 26 -5 -3 -10 -1 -10 4 0 6 4 11 9 11 9 0 34 54 34
76 0 7 4 11 9 8 4 -3 8 4 8 15 0 11 8 25 18 30 9 6 13 11 7 11 -5 0 -3 5 5 10
13 9 13 10 0 10 -13 0 -13 1 0 10 12 8 10 10 -10 7 -14 -1 -31 -6 -37 -10 -7
-5 -13 -4 -13 2 0 6 -8 7 -17 4 -13 -5 -15 -2 -10 11 4 9 3 15 -2 12 -13 -8
-34 21 -25 35 4 7 3 9 -3 6 -10 -7 -28 20 -25 36 1 4 -5 7 -13 7 -8 0 -15 8
-15 19 0 10 -7 24 -15 31 -8 7 -12 16 -9 21 3 5 2 9 -3 9 -4 0 -13 11 -20 25
-9 20 -8 31 4 55 8 17 18 30 21 30 4 0 19 11 34 24 14 14 29 22 32 19 5 -6 10
12 7 29 0 4 8 5 19 3 11 -2 19 -1 17 3 -3 9 60 72 72 72 10 0 7 -51 -3 -71 -4
-8 -1 -6 7 4 8 9 13 32 12 50 -3 25 3 38 26 59 16 15 29 24 29 20 0 -4 5 1 11
11 6 9 14 15 20 12 5 -4 9 -1 9 6 0 9 3 9 14 0 10 -9 16 -9 21 -1z m-360 -40
c4 -7 11 -8 18 -1 16 12 87 10 87 -4 0 -5 4 -5 8 2 8 12 16 12 64 -1 l27 -8
-26 -24 c-14 -13 -30 -21 -35 -18 -4 3 -7 0 -6 -8 2 -7 -5 -12 -15 -12 -15 2
-16 -1 -5 -14 9 -11 9 -14 1 -9 -7 5 -17 -1 -23 -13 -6 -11 -15 -18 -21 -15
-5 4 -9 -2 -9 -12 0 -15 -2 -16 -10 -3 -8 13 -10 12 -10 -3 0 -10 -10 -21 -22
-26 -13 -5 -22 -11 -20 -15 1 -3 2 -12 2 -18 0 -10 -3 -10 -9 0 -6 10 -10 6
-16 -15 -5 -15 -7 -32 -6 -37 1 -4 -4 -15 -11 -24 -10 -12 -10 -14 0 -8 8 5
12 0 12 -14 0 -12 4 -18 10 -15 6 4 10 3 9 -2 -4 -22 2 -43 11 -38 9 6 14 -8
11 -27 0 -5 4 -8 9 -8 6 0 10 -7 10 -15 0 -8 5 -15 10 -15 6 0 10 -7 10 -15 0
-8 5 -15 10 -15 6 0 10 -10 10 -22 0 -19 2 -20 10 -8 8 12 10 11 10 -7 0 -13
6 -23 13 -24 9 0 9 -2 -1 -6 -6 -2 -9 -10 -5 -16 13 -21 13 -58 0 -50 -9 5 -9
3 -1 -8 15 -18 23 -79 11 -79 -5 0 -6 -7 -3 -16 3 -8 2 -12 -4 -9 -6 3 -10 -3
-10 -14 0 -12 -5 -21 -11 -21 -5 0 -7 -5 -4 -10 4 -6 1 -17 -5 -25 -6 -8 -8
-20 -4 -26 4 -8 3 -9 -4 -5 -7 4 -12 1 -12 -7 0 -8 -7 -27 -14 -43 -8 -15 -12
-32 -9 -37 3 -6 1 -7 -5 -3 -5 3 -12 0 -15 -6 -3 -7 -5 -4 -5 7 1 11 -3 29 -7
39 -7 15 -5 17 6 11 12 -8 12 -6 0 8 -8 10 -11 20 -8 24 4 3 2 14 -4 24 -7 14
-6 19 3 20 9 0 10 2 1 5 -7 3 -10 11 -7 19 3 7 1 23 -5 34 -8 14 -8 22 -1 26
8 5 7 11 -1 21 -6 7 -9 20 -6 29 4 8 1 17 -5 21 -7 4 -6 9 2 14 9 5 9 9 1 14
-10 6 -12 2 -11 -19 1 -3 -6 -13 -15 -21 -8 -9 -15 -24 -15 -34 0 -10 -5 -22
-10 -25 -6 -4 -8 -11 -5 -16 4 -5 3 -9 -2 -9 -4 0 -17 -21 -28 -48 -10 -26
-26 -54 -35 -62 -8 -8 -11 -12 -6 -7 20 15 28 6 9 -11 -11 -9 -19 -25 -17 -34
1 -10 -2 -18 -7 -18 -5 0 -8 -3 -7 -7 3 -15 -28 -73 -36 -66 -4 4 -4 0 -1 -8
5 -14 -4 -16 -57 -15 -44 1 -63 5 -62 14 3 38 5 43 15 36 8 -4 9 0 4 15 -4 14
-2 21 6 21 7 0 9 3 6 6 -4 4 2 19 12 33 10 14 16 32 14 39 -3 6 -1 12 4 12 5
0 9 9 10 21 1 12 10 28 20 36 10 8 11 11 3 7 -12 -7 -13 -5 -3 8 7 8 10 18 6
21 -3 4 -1 7 6 7 7 0 11 6 9 12 -3 7 1 19 9 26 7 8 11 18 8 23 -4 5 -1 9 5 9
6 0 8 5 5 10 -3 6 -1 10 4 10 6 0 10 3 10 8 -3 19 2 33 10 28 5 -3 11 1 15 9
3 8 0 15 -7 15 -8 0 -6 4 3 10 8 5 11 10 6 10 -4 0 -1 10 7 23 14 22 14 24 -6
37 -20 12 -21 12 -8 -3 12 -15 11 -17 -3 -18 -9 -1 -22 -2 -30 -3 -16 -1 -67
50 -58 58 3 3 -1 6 -8 6 -7 0 -11 3 -7 6 3 4 -1 13 -9 21 -8 8 -12 19 -9 24 4
5 -2 9 -12 9 -14 0 -15 2 -4 9 11 7 9 10 -8 16 -19 6 -20 9 -9 23 7 9 8 13 2
9 -17 -10 -34 35 -22 59 12 23 67 74 80 74 5 0 6 5 3 10 -3 6 -2 10 3 10 5 0
26 17 48 38 21 20 34 30 30 22 -5 -8 8 2 27 24 20 21 41 35 47 31 6 -3 10 -3
9 2 -3 20 2 34 11 28 6 -3 10 -2 10 4 0 5 10 12 23 14 12 2 25 5 29 6 4 0 10
-4 13 -9z m824 -4 c12 -8 13 -8 7 2 -4 7 -1 12 9 12 10 0 13 -5 9 -12 -6 -10
-5 -10 7 -1 12 10 37 11 59 3 3 -1 8 -2 13 -1 4 0 7 -5 7 -12 0 -7 9 -19 19
-27 11 -7 18 -17 15 -22 -3 -4 2 -8 10 -8 9 0 16 -6 16 -13 0 -7 9 -20 20 -30
12 -10 18 -22 15 -28 -4 -5 -1 -8 5 -7 7 2 17 -6 23 -16 7 -11 20 -28 30 -38
9 -10 17 -23 17 -29 0 -5 5 -7 11 -3 8 4 8 1 1 -12 -5 -11 -8 -23 -6 -29 2 -5
-12 -27 -31 -48 -19 -21 -35 -34 -36 -30 0 4 -4 -2 -9 -14 -5 -13 -17 -23 -27
-23 -14 0 -15 -2 -4 -9 11 -7 9 -10 -8 -16 -11 -3 -21 -13 -21 -21 0 -8 -4
-13 -9 -9 -5 3 -12 -3 -15 -13 -4 -11 -18 -24 -32 -31 -19 -8 -24 -8 -18 0 5
8 3 9 -7 3 -8 -5 -18 -9 -24 -10 -5 0 -15 -2 -21 -2 -12 -2 -15 -32 -3 -32 5
0 4 -12 -1 -26 -7 -19 -7 -23 2 -18 8 5 9 2 5 -9 -3 -9 -1 -19 5 -23 7 -4 6
-9 -3 -15 -8 -5 -9 -9 -3 -9 7 0 10 -13 8 -30 -2 -16 0 -30 4 -30 9 0 8 -52
-1 -67 -4 -6 -2 -13 4 -15 13 -4 19 -87 7 -94 -5 -3 -3 -13 3 -21 16 -19 19
-53 5 -53 -7 0 -7 -3 -1 -8 27 -20 10 -29 -54 -29 -64 1 -67 2 -69 25 -1 14
-8 32 -15 40 -8 11 -8 14 0 9 8 -5 11 1 9 18 -1 14 -6 28 -9 32 -11 11 -8 25
4 17 7 -4 7 1 -1 16 -6 12 -9 28 -6 36 3 8 2 14 -2 14 -4 0 -7 18 -6 40 0 22
-2 40 -6 40 -9 0 -5 44 6 61 4 8 3 9 -4 5 -8 -5 -12 1 -12 17 0 13 -6 24 -13
24 -9 0 -13 -10 -11 -24 1 -13 -2 -23 -7 -23 -5 0 -9 -7 -9 -16 0 -9 -5 -12
-12 -8 -7 4 -8 3 -4 -4 4 -6 -5 -36 -19 -67 -14 -31 -25 -62 -25 -70 0 -8 -4
-15 -10 -15 -5 0 -10 -9 -10 -20 0 -11 -5 -20 -11 -20 -5 0 -8 -4 -4 -9 3 -5
1 -12 -5 -16 -6 -4 -8 -11 -5 -16 4 -5 1 -9 -4 -9 -6 0 -11 16 -11 35 0 21 -5
35 -12 35 -8 0 -9 3 -3 8 12 9 16 52 4 52 -4 0 -6 12 -5 27 2 16 0 40 -5 56
-6 21 -4 29 6 34 8 3 12 9 9 14 -3 5 2 24 11 42 9 17 18 41 21 51 2 11 9 23
16 28 7 4 9 8 4 8 -4 0 10 18 33 40 22 22 41 43 41 46 0 9 28 34 38 34 5 0 14
12 20 26 7 15 17 22 24 18 7 -5 8 -3 4 5 -5 8 0 14 14 18 16 4 18 8 8 14 -10
7 -8 9 6 9 11 0 16 3 13 7 -4 3 -1 13 6 21 10 13 9 14 -3 7 -12 -7 -13 -6 -4
6 14 17 14 49 1 49 -5 0 -3 8 4 17 8 9 9 14 3 11 -5 -4 -18 4 -28 17 -10 14
-23 22 -29 18 -6 -3 -7 -1 -3 5 4 6 -2 19 -14 29 -11 10 -20 23 -20 30 0 7 -4
13 -10 13 -5 0 -10 7 -10 16 0 8 -4 13 -9 10 -15 -10 -21 23 -7 37 17 16 126
19 145 3z m-1002 -13 c17 -7 24 -43 8 -43 -8 0 -21 -10 -29 -22 -9 -12 -16
-20 -16 -16 0 3 -16 -9 -35 -28 -20 -19 -40 -34 -46 -34 -5 0 -7 -4 -4 -10 6
-9 -8 -14 -28 -11 -5 1 -6 -2 -4 -6 6 -11 -19 -34 -27 -25 -4 3 -4 -1 -1 -10
4 -9 2 -19 -4 -22 -5 -3 -8 -20 -6 -36 3 -22 1 -29 -8 -25 -7 4 -3 -1 7 -9 11
-9 16 -16 11 -16 -4 0 1 -8 12 -17 11 -10 18 -24 16 -30 -3 -7 2 -13 11 -13
10 0 13 -6 10 -15 -4 -8 1 -17 10 -21 9 -3 13 -10 10 -15 -3 -5 -1 -9 5 -9 6
0 13 -11 17 -25 3 -14 11 -25 16 -25 6 0 8 -13 6 -30 -3 -16 -2 -30 1 -30 12
0 6 -115 -6 -128 -7 -7 -13 -20 -13 -28 0 -8 -5 -14 -10 -14 -6 0 -9 -3 -9 -7
1 -5 0 -11 -1 -15 -4 -13 -7 -27 -9 -39 0 -5 -5 -8 -10 -5 -5 4 -8 -2 -7 -11
2 -10 -4 -24 -13 -31 -9 -8 -10 -11 -3 -7 6 3 12 1 12 -4 0 -6 -5 -11 -11 -11
-6 0 -8 -7 -5 -16 3 -8 2 -13 -3 -10 -4 3 -9 18 -10 33 -4 60 -7 79 -15 92 -7
10 -6 12 4 6 10 -6 11 -4 4 6 -5 8 -9 30 -10 49 -1 19 -3 37 -4 40 -1 3 -3 19
-5 35 -1 17 -3 34 -4 39 -2 13 -41 -40 -41 -56 0 -8 -3 -18 -7 -22 -5 -4 -8
-11 -8 -14 -1 -4 -6 -17 -13 -28 -6 -12 -8 -24 -5 -28 3 -3 1 -6 -5 -6 -6 0
-13 -13 -17 -30 -4 -17 -11 -30 -16 -30 -6 0 -8 -4 -5 -8 3 -5 -8 -35 -24 -68
-15 -32 -26 -62 -24 -66 3 -5 0 -8 -5 -8 -6 0 -11 -6 -11 -13 0 -9 -19 -13
-66 -14 -56 0 -64 2 -58 16 3 9 9 24 11 34 3 9 9 17 14 17 5 0 6 7 3 15 -4 8
-1 15 6 15 6 0 8 5 5 10 -3 5 -1 10 4 10 6 0 10 3 10 8 -3 19 2 33 11 27 5 -3
7 0 4 9 -3 8 1 25 9 38 8 13 13 31 12 41 -2 9 1 15 6 11 8 -4 10 1 9 21 -1 3
6 13 15 22 9 8 14 22 11 29 -3 8 -1 14 5 14 6 0 7 5 4 10 -3 6 -1 10 5 10 6 0
9 4 6 8 -3 5 2 20 12 33 9 13 17 33 17 44 1 11 7 19 14 17 7 -1 10 2 6 8 -4 6
-1 21 7 33 8 12 13 37 13 55 -1 17 3 32 8 32 4 0 6 9 2 19 -3 11 -1 22 4 25 6
4 8 13 5 21 -3 7 -1 23 6 34 8 16 8 21 -2 21 -8 0 -9 3 -3 8 6 4 11 12 11 17
1 6 4 29 8 52 3 23 3 44 -2 46 -4 3 -25 -1 -47 -9 -22 -7 -48 -14 -57 -14 -10
0 -18 -4 -18 -8 0 -5 -13 -9 -30 -10 -27 -1 -29 1 -20 19 8 14 7 19 -2 20 -10
0 -10 2 0 6 6 2 12 18 12 34 0 18 6 32 15 34 8 3 23 8 33 12 9 4 22 7 27 8 6
0 16 4 23 9 7 4 20 5 28 2 8 -3 13 -2 10 3 -7 10 22 23 34 16 5 -3 11 -1 14 4
6 8 200 12 223 4z m1456 -6 c49 -19 63 -24 96 -31 8 -1 17 -8 19 -14 2 -7 8
-9 14 -6 5 4 20 1 33 -6 18 -10 22 -19 19 -44 -10 -74 -12 -76 -47 -69 -17 3
-34 9 -37 12 -3 3 -16 8 -30 9 -14 2 -29 8 -35 12 -5 4 -25 10 -42 13 -24 4
-33 1 -33 -9 0 -8 -6 -14 -12 -15 -10 0 -10 -2 -1 -6 10 -3 10 -10 2 -24 -5
-11 -7 -24 -4 -29 3 -6 0 -10 -7 -11 -10 0 -10 -2 0 -6 6 -2 9 -10 5 -16 -4
-6 -8 -18 -10 -27 -9 -57 -14 -88 -16 -110 -1 -14 -6 -31 -10 -37 -5 -7 -4
-13 0 -13 5 0 8 -16 7 -36 -1 -20 2 -49 6 -65 5 -18 5 -29 -1 -29 -6 0 -7 -6
-3 -12 5 -7 9 -27 9 -44 1 -17 5 -36 9 -42 4 -7 2 -12 -6 -12 -9 0 -10 -2 -1
-8 6 -4 10 -22 9 -40 -1 -17 2 -32 7 -32 5 0 3 -8 -4 -17 -11 -13 -11 -15 -1
-9 10 6 12 1 9 -22 -3 -17 -3 -33 0 -36 4 -3 7 -31 8 -61 3 -60 6 -57 -67 -60
-52 -3 -63 2 -47 21 9 11 9 13 -2 9 -11 -4 -14 5 -15 37 -3 90 -8 127 -17 121
-5 -3 -4 4 2 15 7 14 8 23 1 27 -6 4 -8 11 -4 16 3 6 3 18 -1 27 -4 9 -8 37
-8 62 -1 43 -20 80 -31 61 -4 -5 -1 -11 5 -13 6 -2 2 -14 -10 -27 -23 -26 -27
-36 -11 -26 6 4 2 -8 -9 -26 -11 -18 -18 -36 -15 -41 3 -4 1 -8 -4 -8 -5 0
-13 -10 -17 -22 -4 -13 -8 -26 -10 -30 -2 -8 -3 -11 -7 -25 -1 -5 -8 -14 -15
-21 -7 -7 -13 -22 -13 -33 0 -10 -6 -19 -12 -19 -9 0 -13 17 -12 53 0 28 -3
62 -8 75 -5 15 -4 22 5 22 8 0 8 3 -2 9 -8 5 -11 16 -8 25 3 8 1 18 -5 22 -7
5 -7 8 1 13 6 4 12 18 15 31 2 14 9 24 17 22 10 -3 10 0 -1 12 -7 9 -8 16 -2
16 8 0 21 29 21 53 1 14 46 54 55 49 5 -3 6 0 3 5 -4 6 8 22 25 37 18 14 28
26 22 26 -5 1 2 7 16 15 14 8 21 14 16 15 -5 0 4 12 21 28 34 31 45 53 48 100
2 22 -2 32 -12 32 -8 0 -11 5 -8 10 3 6 1 10 -4 10 -6 0 -11 7 -11 16 0 8 -4
12 -10 9 -5 -3 -10 -1 -10 5 0 6 -13 25 -29 42 -82 88 -67 106 87 104 59 -2
115 -6 125 -9z"/>
<path d="M3295 1721 c-3 -5 -2 -12 3 -15 5 -3 9 1 9 9 0 17 -3 19 -12 6z"/>
<path d="M3355 1710 c-4 -6 -11 -8 -16 -5 -5 4 -9 -1 -9 -9 0 -10 -7 -13 -21
-11 -18 4 -19 2 -7 -12 7 -9 8 -14 2 -10 -6 4 -20 -4 -30 -18 -10 -13 -22 -21
-27 -18 -6 3 -7 1 -3 -5 3 -6 2 -13 -3 -16 -13 -9 11 -56 29 -56 13 0 13 -1 0
-10 -10 -6 -11 -10 -3 -10 7 0 15 -11 19 -25 4 -14 9 -23 12 -20 3 3 11 -4 18
-16 11 -22 12 -22 13 4 3 56 4 62 15 69 8 5 7 8 -2 8 -10 0 -10 5 -1 21 6 12
9 30 6 40 -3 10 -1 19 3 19 5 0 7 8 6 18 -2 9 4 23 13 30 14 11 14 11 -3 6
-16 -6 -17 -4 -7 14 12 22 8 31 -4 12z m-43 -111 c-4 -29 -22 -50 -22 -26 0 9
-6 17 -12 17 -8 1 -6 6 4 14 10 7 14 17 10 21 -4 4 0 6 8 3 9 -3 14 -14 12
-29z"/>
<path d="M3595 1710 c3 -5 8 -10 11 -10 2 0 4 5 4 10 0 6 -5 10 -11 10 -5 0
-7 -4 -4 -10z"/>
<path d="M3610 1697 c-8 -7 -17 -28 -19 -47 -1 -19 -6 -37 -10 -40 -6 -5 -7
-16 -13 -99 -3 -42 14 -50 32 -17 7 14 17 23 22 20 4 -3 8 -1 8 5 0 5 14 23
30 39 35 36 37 51 10 80 -11 12 -20 26 -20 32 0 5 -4 10 -9 10 -5 0 -11 6 -13
14 -2 12 -6 12 -18 3z m38 -80 c8 -10 5 -20 -12 -42 -19 -24 -23 -25 -23 -9 0
10 4 25 10 32 6 8 6 12 -2 12 -7 0 -9 5 -6 10 8 14 20 13 33 -3z"/>
<path d="M3293 1303 c4 -3 2 -12 -4 -19 -5 -7 -6 -15 -1 -18 5 -3 8 -35 6 -72
-2 -36 -1 -64 2 -61 11 11 12 137 1 137 -7 0 -7 4 1 12 15 15 15 28 0 28 -6 0
-8 -3 -5 -7z"/>
<path d="M3287 1107 c4 -6 6 -20 5 -29 -2 -10 0 -18 5 -18 14 0 11 49 -4 54
-9 4 -11 2 -6 -7z"/>
<path d="M3160 986 c0 -8 4 -17 9 -20 5 -4 7 3 4 14 -6 23 -13 26 -13 6z"/>
<path d="M3150 939 c0 -5 5 -7 10 -4 6 3 10 8 10 11 0 2 -4 4 -10 4 -5 0 -10
-5 -10 -11z"/>
<path d="M3165 920 c-3 -5 -1 -10 4 -10 6 0 11 5 11 10 0 6 -2 10 -4 10 -3 0
-8 -4 -11 -10z"/>
<path d="M2985 1680 c3 -5 -2 -10 -12 -10 -10 0 -29 -13 -43 -30 -14 -16 -30
-30 -37 -30 -16 0 -17 -22 -1 -38 7 -7 9 -12 4 -12 -4 0 2 -13 13 -29 11 -15
18 -31 14 -35 -3 -3 1 -6 11 -6 9 0 14 -4 11 -10 -3 -5 -1 -10 5 -10 6 0 8 -6
4 -12 -4 -7 -3 -10 1 -5 5 4 10 18 12 30 2 12 6 36 9 52 3 17 7 41 10 55 11
64 13 100 3 100 -6 0 -7 -4 -4 -10z m-33 -87 c-6 -3 -10 -9 -6 -14 3 -5 -2 -9
-10 -9 -9 0 -16 4 -16 10 0 11 33 31 40 23 3 -3 -1 -8 -8 -10z"/>
<path d="M3953 1667 c-1 -12 -4 -40 -8 -62 -3 -22 -6 -46 -7 -52 -1 -7 -5 -13
-10 -13 -5 0 -4 -9 2 -20 6 -11 7 -20 2 -20 -5 0 -9 -7 -9 -15 0 -22 25 -18
39 5 7 11 18 20 25 20 7 0 12 3 11 8 -2 4 5 18 15 32 9 13 17 20 17 15 0 -6 5
-2 11 9 7 11 8 21 2 25 -5 3 -12 14 -16 24 -4 10 -11 16 -16 12 -8 -5 -27 31
-24 45 1 3 -6 6 -16 7 -11 1 -17 -6 -18 -20z m49 -74 c-6 -2 -10 -8 -8 -11 2
-4 -2 -13 -10 -20 -12 -11 -13 -9 -10 10 3 13 5 24 5 26 1 1 9 2 19 1 10 0 12
-3 4 -6z"/>
<path d="M3915 1380 c-3 -5 -1 -10 4 -10 6 0 11 5 11 10 0 6 -2 10 -4 10 -3 0
-8 -4 -11 -10z"/>
<path d="M5428 2564 c-6 -13 -15 -21 -21 -17 -6 3 -7 1 -4 -4 4 -6 -33 -81
-82 -167 -49 -86 -87 -156 -83 -156 3 0 -2 -8 -11 -17 -8 -10 -31 -47 -49 -83
-19 -36 -45 -83 -59 -105 -14 -22 -31 -55 -38 -72 -8 -18 -17 -33 -21 -33 -4
0 -11 -11 -14 -25 -4 -14 -11 -25 -17 -25 -6 0 -8 -4 -4 -9 3 -5 -1 -15 -8
-23 -13 -14 -34 -57 -35 -72 0 -5 -5 -12 -10 -15 -5 -3 -25 -35 -45 -71 -19
-36 -63 -114 -98 -175 -34 -60 -74 -132 -87 -160 -14 -27 -28 -52 -32 -55 -3
-3 -19 -31 -35 -63 -17 -32 -37 -66 -45 -75 -8 -10 -16 -24 -18 -32 -2 -8 -9
-18 -15 -22 -7 -4 -9 -8 -5 -8 4 0 -1 -15 -11 -34 -11 -18 -25 -44 -33 -57 -7
-13 -16 -26 -19 -29 -12 -11 -37 -70 -31 -74 4 -2 85 -4 180 -4 l172 1 6 23
c3 13 10 24 15 24 5 0 9 9 9 19 0 11 3 21 8 23 4 2 25 37 46 78 22 41 42 77
45 80 12 10 31 50 31 64 0 8 3 16 8 18 4 2 19 26 34 53 l27 50 325 1 c324 1
326 1 327 -20 0 -12 2 -30 5 -41 2 -11 6 -39 9 -61 3 -23 8 -53 10 -65 3 -13
7 -35 9 -49 3 -14 8 -45 11 -70 3 -25 7 -54 9 -65 3 -11 5 -29 5 -41 1 -21 5
-21 179 -22 l179 0 -24 137 c-12 75 -25 154 -28 176 -3 22 -7 51 -10 65 -3 14
-7 36 -10 50 -7 47 -15 95 -22 125 -4 17 -7 39 -8 50 -1 21 -15 107 -21 138
-2 9 -6 25 -8 35 -2 9 -6 38 -10 63 -9 60 -14 93 -26 154 -11 56 -19 106 -26
150 -2 17 -6 39 -8 50 -2 11 -8 45 -12 75 -4 30 -8 57 -9 60 -1 3 -4 19 -8 35
-3 17 -9 46 -11 65 -3 19 -10 62 -16 94 -5 32 -7 62 -5 67 3 4 1 10 -5 14 -5
3 -10 18 -10 33 -1 72 12 68 -222 68 -210 1 -210 1 -220 -22z m176 -309 c3
-27 8 -69 11 -92 3 -24 7 -62 10 -85 3 -24 10 -65 15 -93 6 -27 12 -70 14 -95
2 -25 6 -52 9 -60 3 -8 8 -41 11 -73 3 -32 7 -61 10 -65 2 -4 6 -29 7 -56 l3
-49 -223 -1 c-123 -1 -227 2 -233 5 -5 3 0 24 14 49 13 23 41 77 63 119 89
167 138 257 147 269 6 6 7 12 3 12 -4 0 -3 6 3 13 11 13 89 169 113 224 7 18
14 31 15 30 1 -1 5 -24 8 -52z"/>
<path d="M6530 2471 c-12 -64 -33 -172 -47 -241 -13 -69 -27 -136 -29 -150 -2
-14 -7 -36 -9 -50 -3 -14 -8 -38 -11 -55 -4 -16 -8 -37 -9 -45 -8 -57 -19 -96
-29 -102 -7 -5 -7 -8 0 -8 6 0 -2 -61 -22 -157 -18 -87 -32 -160 -32 -163 0
-3 -1 -7 -2 -10 -1 -3 -3 -14 -5 -25 -1 -11 -5 -33 -9 -50 -3 -16 -9 -46 -12
-65 -3 -19 -8 -39 -11 -44 -3 -4 -7 -25 -9 -45 -2 -20 -6 -47 -9 -61 -4 -14
-9 -41 -12 -60 -2 -19 -11 -62 -19 -95 -8 -33 -17 -73 -19 -90 -2 -16 -6 -40
-9 -52 -5 -21 -4 -22 170 -21 170 1 185 4 190 33 1 6 12 60 24 120 12 61 24
121 26 135 2 14 9 48 15 75 11 53 13 64 32 165 8 44 17 65 27 66 8 1 17 2 20
3 3 1 138 3 300 4 162 1 300 5 305 9 6 3 30 11 55 17 56 15 69 20 153 62 37
18 67 37 67 41 0 4 7 8 16 8 8 0 12 5 9 10 -3 6 -2 10 3 10 12 0 95 85 93 95
-2 4 1 11 6 14 13 9 47 71 62 111 16 44 37 175 35 215 -7 142 -43 249 -103
312 -16 17 -27 34 -24 37 4 3 1 6 -6 6 -17 0 -42 26 -33 35 4 5 2 5 -4 2 -7
-4 -22 1 -35 11 -21 16 -53 32 -124 62 -24 10 -94 27 -150 36 -22 4 -212 8
-422 9 l-381 2 -22 -116z m755 -174 c101 -28 155 -81 178 -174 11 -44 8 -131
-6 -173 -3 -8 -8 -25 -12 -37 -4 -13 -11 -23 -16 -23 -5 0 -8 -4 -7 -9 5 -14
-59 -69 -99 -86 -21 -9 -58 -21 -83 -27 -43 -10 -452 -19 -477 -10 -12 4 -12
14 2 82 3 14 12 59 20 100 8 41 17 86 20 100 3 14 8 41 11 60 3 19 7 43 10 52
9 29 15 62 19 101 2 21 7 43 11 48 6 11 389 7 429 -4z"/>
</g>
</svg>
